<svg xmlns="http://www.w3.org/2000/svg" viewBox="0 0 240 240" width="240" height="240" role="img" aria-label="WhatsApp Hub">
  <defs>
    <linearGradient id="whg" x1="0" y1="0" x2="1" y2="1">
      <stop offset="0" stop-color="#25d366"/>
      <stop offset="1" stop-color="#128c3e"/>
    </linearGradient>
  </defs>
  <rect x="20" y="20" width="200" height="200" rx="48" fill="url(#whg)"/>
  <path d="M120 58c-34 0-62 27-62 61 0 12 4 24 10 33l-11 30 31-10c9 5 21 8 32 8 34 0 62-27 62-61s-28-61-62-61z" fill="#ffffff"/>
  <path d="M99 92c-2-4-4-4-6-4h-5c-2 0-5 1-7 4s-9 9-9 21 9 24 11 25c2 2 18 29 44 39 22 8 26 7 31 6 5-1 16-6 18-13s2-12 1-13-2-2-5-3-16-8-19-9-5-1-7 1-8 9-9 11-4 2-7 1c-3-2-13-5-25-15-9-8-15-18-17-21s0-5 1-6c1-2 3-3 4-5 2-2 2-3 3-5 1-2 1-4 0-5z" fill="#25d366"/>
</svg>
